<svg xmlns="http://www.w3.org/2000/svg" viewBox="-10 0 1044 1024"><path fill="currentColor" d="M512 0Q294 5 149.5 149.5T0 512q5 218 149.5 362.5T512 1024q218-5 362.5-149.5T1024 512q-5-218-149.5-362.5T512 0m-6 813q-19-1-31-13t-12-30.5 12-31 30.5-12.5 30.5 12.5 12 31-12 30.5-30 13m185-422q0 33-18 67.5T604 545q-28 27-43.5 48T543 631q-2 15-12 24t-24 9h-4q-15-2-24-13t-8-27q4-37 27.5-68.5T553 494q46-47 57-69.5t9-37.5q2-39-26-69-16-16-37-25t-44-10q-46 2-76.5 32T404 391q0 15-10 25.5T368.5 427 343 416.5 332 391q0-36 13.5-68.5t39-58 58-39 70-13.5 72 14.5T645 268q24 26 36 57.5t10 65.5"/></svg>